<?xml version="1.0" standalone="no"?>
<!DOCTYPE svg PUBLIC "-//W3C//DTD SVG 20010904//EN"
 "http://www.w3.org/TR/2001/REC-SVG-20010904/DTD/svg10.dtd">
<svg version="1.0" xmlns="http://www.w3.org/2000/svg"
 width="890.000000pt" height="890.000000pt" viewBox="0 0 890.000000 890.000000"
 preserveAspectRatio="xMidYMid meet">
<metadata>
Created by potrace 1.11, written by Peter Selinger 2001-2013
</metadata>
<g transform="translate(0.000000,890.000000) scale(0.100000,-0.100000)"
fill="#000000" stroke="none">
<path d="M4608 5975 c63 -15 132 -45 132 -57 0 -4 -15 -17 -32 -28 -39 -23
-30 -27 12 -5 36 19 38 37 7 58 -29 18 -123 47 -151 46 -12 0 3 -6 32 -14z"/>
<path d="M3929 5809 c-35 -39 -68 -79 -72 -89 -7 -13 21 -59 113 -191 67 -96
131 -183 142 -194 21 -21 -31 58 -166 250 -92 131 -90 124 -31 190 20 22 44
50 52 63 21 31 29 28 42 -15 l10 -38 -5 40 c-3 22 -9 43 -13 48 -4 4 -36 -25
-72 -64z"/>
<path d="M4648 5863 c7 -3 16 -2 19 1 4 3 -2 6 -13 5 -11 0 -14 -3 -6 -6z"/>
<path d="M4608 5853 c7 -3 16 -2 19 1 4 3 -2 6 -13 5 -11 0 -14 -3 -6 -6z"/>
<path d="M4021 5770 c0 -8 4 -24 9 -35 5 -13 9 -14 9 -5 0 8 -4 24 -9 35 -5
13 -9 14 -9 5z"/>
<path d="M4042 5690 c0 -14 2 -19 5 -12 2 6 2 18 0 25 -3 6 -5 1 -5 -13z"/>
<path d="M4071 5670 c-13 -11 -19 -20 -14 -20 6 0 18 9 28 20 23 25 17 25 -14
0z"/>
<path d="M3995 5645 c69 -31 132 -52 180 -59 25 -4 11 3 -35 17 -41 13 -100
34 -130 46 -71 27 -79 26 -15 -4z"/>
<path d="M4117 5485 c9 -19 18 -33 21 -31 4 5 -26 66 -33 66 -3 0 3 -16 12
-35z"/>
<path d="M4769 5473 c-13 -16 -12 -17 4 -4 16 13 21 21 13 21 -2 0 -10 -8 -17
-17z"/>
<path d="M4140 5437 c0 -15 31 -69 37 -63 3 3 -4 20 -16 38 -11 18 -21 29 -21
25z"/>
<path d="M4180 5356 c0 -13 51 -108 56 -103 3 2 -7 27 -22 53 -30 54 -34 61
-34 50z"/>
<path d="M4156 5267 c3 -10 9 -15 12 -12 3 3 0 11 -7 18 -10 9 -11 8 -5 -6z"/>
<path d="M4240 5231 c0 -5 9 -19 20 -32 l20 -24 -16 33 c-15 32 -24 40 -24 23z"/>
<path d="M2520 4766 c-132 -38 -227 -154 -277 -336 -26 -95 -25 -396 1 -495
69 -258 255 -387 476 -331 134 34 223 127 277 289 26 78 27 92 27 282 1 161
-2 213 -17 265 -41 151 -121 260 -226 308 -66 31 -189 39 -261 18z m256 -58
c137 -71 202 -218 211 -478 11 -301 -59 -487 -211 -565 -52 -26 -69 -30 -145
-30 -72 0 -95 4 -141 26 -67 31 -119 84 -159 158 -45 85 -61 162 -68 316 -13
321 75 524 254 591 62 23 196 14 259 -18z"/>
<path d="M3459 4767 c-63 -24 -103 -51 -136 -95 -41 -54 -56 -111 -50 -187 10
-134 70 -185 348 -299 96 -39 143 -78 175 -142 24 -49 26 -62 22 -142 -3 -73
-9 -96 -31 -134 -58 -99 -154 -145 -279 -135 -78 7 -133 29 -201 81 -30 23
-55 35 -65 31 -26 -10 43 -72 127 -113 70 -34 81 -37 166 -37 82 0 97 3 157
33 113 55 170 153 170 289 -1 91 -17 143 -60 194 -47 54 -93 82 -224 134 -180
72 -236 114 -258 193 -23 84 -6 164 48 224 51 57 101 78 188 78 85 0 142 -18
203 -65 48 -38 56 -41 67 -23 10 16 -48 64 -116 96 -67 31 -193 41 -251 19z"/>
<path d="M6038 4763 c-17 -4 -18 -40 -18 -579 l0 -574 21 0 21 0 -4 544 c-2
299 -1 543 2 541 3 -2 126 -247 275 -544 259 -519 271 -541 297 -541 l28 0 0
575 c0 568 0 575 -20 575 -20 0 -20 -7 -21 -547 l0 -548 -274 547 c-151 300
-278 548 -282 550 -4 3 -16 3 -25 1z"/>
<path d="M7241 4761 c-20 -5 -29 -22 -57 -111 -113 -365 -308 -990 -315 -1013
-7 -25 -6 -28 13 -25 17 2 28 26 63 143 24 77 100 323 169 548 69 224 126 411
127 415 0 4 5 -4 10 -17 20 -50 319 -1029 319 -1044 0 -15 -24 -17 -246 -17
-192 0 -245 -3 -242 -12 4 -10 70 -14 277 -16 l272 -2 -7 22 c-4 13 -85 272
-180 577 -96 305 -175 555 -176 556 -2 1 -14 -1 -27 -4z"/>
<path d="M1280 4185 c0 -568 0 -575 20 -575 20 0 20 7 20 295 l0 295 279 0
278 0 0 -32 c-1 -18 0 -151 1 -295 2 -226 4 -263 17 -263 14 0 18 111 18 615
0 438 -4 535 -18 535 -13 0 -15 -36 -15 -260 l0 -260 -280 0 -280 0 0 260 c0
253 -1 260 -20 260 -20 0 -20 -7 -20 -575z"/>
<path d="M4323 4628 c-22 -73 -102 -330 -177 -570 -75 -241 -136 -440 -136
-443 0 -3 8 -5 18 -5 16 0 45 87 188 550 93 302 172 550 175 550 5 0 329
-1046 329 -1061 0 -3 -21 -5 -47 -5 -325 0 -443 -5 -443 -19 0 -13 37 -15 270
-15 149 0 270 3 270 8 0 4 -79 262 -177 575 -174 559 -177 567 -203 567 -25 0
-28 -7 -67 -132z"/>
<path d="M5010 4186 c0 -575 0 -576 21 -576 20 0 20 0 17 544 -2 299 -1 543 2
541 3 -2 126 -247 275 -544 259 -519 271 -541 297 -541 l28 0 0 575 c0 568 0
575 -20 575 -20 0 -20 -7 -20 -547 l-1 -548 -273 545 c-249 497 -276 545 -300
548 l-26 3 0 -575z"/>
<path d="M3483 3273 c9 -2 23 -2 30 0 6 3 -1 5 -18 5 -16 0 -22 -2 -12 -5z"/>
<path d="M4513 3204 c-3 -9 -9 -30 -12 -48 -5 -25 -12 -31 -31 -31 -22 0 -25
4 -22 32 3 28 -1 35 -23 43 -29 11 -58 5 -180 -35 -39 -13 -101 -27 -138 -31
-62 -6 -67 -5 -67 12 0 11 -7 30 -16 42 -19 27 -79 29 -191 6 -63 -13 -228
-66 -307 -99 -17 -8 -18 -4 -11 55 l7 63 -68 -5 c-67 -5 -215 -40 -243 -57 -7
-5 -11 -13 -8 -18 4 -6 39 -1 89 14 46 13 109 27 141 32 64 9 64 8 48 -62 -6
-25 -24 -52 -54 -80 -61 -56 -76 -125 -35 -151 26 -16 55 17 82 95 21 58 28
66 68 86 61 29 244 91 294 99 l42 6 -5 -45 c-4 -36 -1 -49 16 -66 32 -32 76
-27 116 12 29 29 40 32 100 35 41 2 111 17 177 38 60 19 116 34 124 34 9 0 14
-11 14 -32 0 -45 12 -59 49 -60 l32 -1 -25 -26 c-59 -64 -87 -154 -51 -167 50
-20 95 34 95 113 0 21 4 43 8 49 16 25 68 44 254 93 98 26 103 26 84 -1 -48
-68 25 -139 93 -92 17 12 26 13 34 5 21 -21 65 -11 181 39 138 59 206 80 257
80 41 0 60 -19 52 -51 -4 -15 -14 -18 -50 -16 -34 1 -48 -2 -57 -15 -19 -30 4
-53 50 -51 162 9 241 29 274 68 12 14 12 18 -1 25 -8 6 -15 5 -17 -1 -8 -21
-82 -49 -131 -49 -49 0 -50 0 -42 28 36 124 -93 121 -394 -10 -44 -19 -86 -33
-92 -31 -17 6 -16 33 3 78 19 47 11 55 -66 55 -57 0 -288 -54 -379 -89 -55
-21 -58 -19 -36 19 19 33 19 66 -1 74 -22 8 -24 8 -31 -10z m-503 -55 c0 -21
-1 -22 -24 -13 -16 6 -22 35 -9 47 10 11 33 -13 33 -34z m990 26 c0 -13 -40
-82 -54 -94 -23 -19 -60 -10 -64 17 -5 32 48 82 87 82 17 0 31 -2 31 -5z
m-1053 -35 c6 -16 18 -30 27 -30 9 0 16 -4 16 -8 0 -15 -24 -32 -45 -32 -28 0
-45 19 -45 50 0 24 16 50 30 50 3 0 11 -13 17 -30z m1497 -59 c7 -11 -14 -20
-31 -13 -7 2 -13 8 -13 13 0 12 37 12 44 0z m-2000 -105 c-16 -48 -38 -74 -48
-57 -12 19 32 101 55 101 4 0 1 -20 -7 -44z m1034 -23 c-7 -14 -19 -28 -25
-31 -20 -6 -15 30 9 68 20 32 23 33 26 13 2 -12 -3 -35 -10 -50z"/>
</g>
</svg>
